<svg width="1024" height="1024" viewBox="0 0 1024 1024" fill="none" xmlns="http://www.w3.org/2000/svg">
<path d="M1024 512C1024 794.77 794.77 1024 512 1024C229.23 1024 0 794.77 0 512C0 229.23 229.23 0 512 0C794.77 0 1024 229.23 1024 512Z" fill="white"/>
<path d="M969 512C969 764.394 764.394 969 512 969C259.606 969 55 764.394 55 512C55 259.606 259.606 55 512 55C764.394 55 969 259.606 969 512Z" fill="#122039"/>
<path d="M936 512.5C936 746.393 746.393 936 512.5 936C278.607 936 89 746.393 89 512.5C89 278.607 278.607 89 512.5 89C746.393 89 936 278.607 936 512.5Z" fill="#1B3B67"/>
<path fill-rule="evenodd" clip-rule="evenodd" d="M466 728.5V702.5H386V674H363.5V666H349.5V686H333V702.5H178.5V670H160C160.333 664.667 160.8 654 160 654H137.5V353H149.5V335.5H169.5V318H187V296.5H338.5V317H352.5V333H368.5V319H391.5V296.5H517.5V316.5H545.5V296.5H630V572.5H684.5V538H764.5V296.5H873V648.5H857.5V673.5H840.5V691H824V703H711.5V687.5H702V703H550.5V728.5H466ZM441 490.5C440.833 469.333 440.6 426.7 441 425.5H461.5V490.5H441ZM244 572H270V539.5H345V458.5H272.5V428.5H244V572Z" fill="#101F36"/>
<path d="M200.5 635V640.5V649H320V634.5V629.5H337.5V558.5H285.5V591.5H221V377H285.5V413H338.5V333.5H320V328.5H201.5V333.5H183V355.5H161.5V611.5H182.5V617.5V635H200.5Z" fill="#F4CB33"/>
<path fill-rule="evenodd" clip-rule="evenodd" d="M538 637H521V612.5H538V354.5H519.5V334.5H501V328.5H406.5V334.5H386.5V355.5H366.5V612.5H386.5V616.5V629.5H406.5V634.5V648.5H464.5V657.5H484.5V663.5V677.5H538V637ZM483.5 571.5V591.5H419.5V376.5H482.5L483.5 511.5H452.5V543.5H464.5V547.5V571.5H483.5Z" fill="#F4CB33"/>
<path d="M562.5 648.5H684.5V591.5H613.5V327.5H562.5V648.5Z" fill="#F4CB33"/>
<path d="M838.5 638.5V634.5H820.5V638.5H838.5Z" fill="#F3883D"/>
<path d="M723.5 659.5H820.5V648.5H723.5V659.5Z" fill="#F3883D"/>
<path d="M856.5 611.5H838.5V616.5H856.5V611.5Z" fill="#F3883D"/>
<path d="M684.5 648.5H562.5V658.5H684.5V648.5Z" fill="#F3883D"/>
<path d="M538 677.5H484.5V690.5H538V677.5Z" fill="#F3883D"/>
<path d="M484.5 657.5H464.5V659.5V663.5H484.5V657.5Z" fill="#F3883D"/>
<path d="M464.5 648.5H406.5V659.5H464.5V657.5V648.5Z" fill="#F3883D"/>
<path d="M406.5 629.5H386.5V634.5H406.5V629.5Z" fill="#F3883D"/>
<path d="M386.5 612.5H366.5V616.5H386.5V612.5Z" fill="#F3883D"/>
<path d="M464.5 543.5H452.5V547.5H464.5V543.5Z" fill="#F3883D"/>
<path d="M337.5 629.5H320V634.5H337.5V629.5Z" fill="#F3883D"/>
<path d="M320 649H200.5V659.5H320V649Z" fill="#F3883D"/>
<path d="M200.5 635H182.5V640.5H200.5V635Z" fill="#F3883D"/>
<path d="M182.5 611.5H161.5V617.5H182.5V611.5Z" fill="#F3883D"/>
<path d="M201.5 328.5H320V317H201.5V328.5Z" fill="#F9DD58"/>
<path d="M406.5 328.5H501V317.5H406.5V328.5Z" fill="#F9DD58"/>
<path d="M562.5 327.5H613.5V317.5H562.5V327.5Z" fill="#F9DD58"/>
<path d="M794.5 317.5V327.5H856.5V317.5H794.5Z" fill="#F9DD58"/>
<path d="M723.5 628.5V648.5H820.5V638.5V634.5H838.5V616.5V611.5H856.5V327.5H794.5V591.5H756.5V558.5H705.5V628.5H723.5Z" fill="#F4CB33"/>
</svg>
